<?xml version="1.0" encoding="utf-8"?>

<!DOCTYPE svg PUBLIC "-//W3C//DTD SVG 1.1//EN" "http://www.w3.org/Graphics/SVG/1.1/DTD/svg11.dtd">
<!-- Uploaded to: SVG Repo, www.svgrepo.com, Generator: SVG Repo Mixer Tools -->
<svg height="800px" width="800px" version="1.1" id="_x32_" xmlns="http://www.w3.org/2000/svg" xmlns:xlink="http://www.w3.org/1999/xlink" 
	 viewBox="0 0 512 512"  xml:space="preserve">
<style type="text/css">
	.st0{fill:#000000;}
</style>
<g>
	<path class="st0" d="M409.684,275.805c-11.085,0.02-18.166-1.63-21.656-3.038c-3.571-1.53-3.782-2.052-4.717-3.078
		c-0.574-0.785-1.459-2.153-2.455-5.15c-1.318-3.964-2.596-10.904-2.575-20.842c0-36.875,0-16.415,0-30.014
		c11.929-2.877,11.98-10.804,11.98-23.9c0-12.472-20.188-26.514-42.035-32.831v-20.579c32.812,0,92.509,0,111.549,0
		c26.736,0,17.764-36.331,0-42.789c-21.013-7.624-58.39-22.048-93.635-29.693c-5.563-16.898-21.294-29.19-40.064-29.19
		c-18.768,0-34.49,12.292-40.053,29.19c-35.244,7.644-72.622,22.068-93.635,29.693c-17.763,6.458-26.725,42.789,0,42.789
		c19.042,0,78.729,0,111.539,0v20.579c-21.847,6.338-42.024,20.359-42.024,32.831c0,12.554,0,20.38,10.501,23.538
		c0,18.85,0,5.089,0,30.376c0.02,9.938-1.268,16.878-2.575,20.842c-0.996,2.997-1.891,4.365-2.465,5.15
		c-0.935,1.026-1.146,1.548-4.707,3.078c-3.49,1.408-10.572,3.058-21.656,3.038c-36.271,0-64.858,0-98.997,0
		c-19.876,0.02-38.806,2.434-56.79,8.409c-13.459,4.466-26.334,11.064-37.67,19.896c-17.099,13.176-29.923,31.342-37.297,50.473
		C2.756,373.815,0.02,393.792,0,413.949c0,54.216,0,63.349,0,63.349h105.866c0,0,0-9.133,0-63.349
		c-0.009-9.173,1.197-15.651,2.484-19.453c0.986-2.896,1.871-4.304,2.585-5.21c1.127-1.287,1.84-2.254,6.186-4.063
		c4.265-1.711,12.372-3.562,24.885-3.541c24.916,0,39.319,0,62.484,0c36.503,0,32.791,55.725,119.456,55.725
		s91.532-55.725,128.025-55.725c18.346,0,55.141,0,60.029,0V275.805C494.418,275.805,425.436,275.805,409.684,275.805z"/>
</g>
</svg>